<?xml version="1.0" encoding="UTF-8" standalone="no"?>
<svg width="1920" height="1080" xmlns="http://www.w3.org/2000/svg">
  <defs>
    <linearGradient id="skyGradient" x1="0%" y1="0%" x2="100%" y2="100%">
      <stop offset="0%" stop-color="#003366" />
      <stop offset="100%" stop-color="#0066CC" />
    </linearGradient>
    <linearGradient id="buildingGradient" x1="0%" y1="0%" x2="100%" y2="0%">
      <stop offset="0%" stop-color="#333333" />
      <stop offset="100%" stop-color="#666666" />
    </linearGradient>
  </defs>
  
  <!-- Background Sky -->
  <rect width="1920" height="1080" fill="url(#skyGradient)" />
  
  <!-- Moon -->
  <circle cx="1700" cy="250" r="100" fill="#FFD700" opacity="0.9" />
  <circle cx="1680" cy="230" r="85" fill="url(#skyGradient)" opacity="0.9" />
  
  <!-- Distant Mountain Silhouette -->
  <polygon points="0,650 150,500 300,600 450,450 600,570 750,500 900,580 1050,450 1200,550 1350,470 1500,600 1650,520 1800,580 1920,500 1920,1080 0,1080" fill="#001933" />
  
  <!-- City Skyline Buildings -->
  <rect x="100" y="600" width="120" height="480" fill="url(#buildingGradient)" />
  <rect x="250" y="700" width="80" height="380" fill="url(#buildingGradient)" />
  <rect x="360" y="650" width="100" height="430" fill="url(#buildingGradient)" />
  <rect x="490" y="750" width="70" height="330" fill="url(#buildingGradient)" />
  <rect x="590" y="600" width="140" height="480" fill="url(#buildingGradient)" />
  
  <!-- Osaka Castle-like Structure -->
  <rect x="780" y="600" width="200" height="150" fill="#555555" />
  <rect x="800" y="450" width="160" height="150" fill="#666666" />
  <rect x="820" y="350" width="120" height="100" fill="#777777" />
  <rect x="850" y="250" width="60" height="100" fill="#888888" />
  <polygon points="850,250 910,250 880,180" fill="#999999" />
  
  <!-- More Buildings -->
  <rect x="1030" y="700" width="90" height="380" fill="url(#buildingGradient)" />
  <rect x="1150" y="600" width="130" height="480" fill="url(#buildingGradient)" />
  <rect x="1310" y="550" width="180" height="530" fill="url(#buildingGradient)" />
  <rect x="1520" y="650" width="100" height="430" fill="url(#buildingGradient)" />
  <rect x="1650" y="700" width="70" height="380" fill="url(#buildingGradient)" />
  <rect x="1750" y="600" width="150" height="480" fill="url(#buildingGradient)" />
  
  <!-- Building Windows -->
  <g fill="#FFCC00" opacity="0.8">
    <!-- Windows for building 1 -->
    <rect x="120" y="650" width="15" height="20" />
    <rect x="150" y="650" width="15" height="20" />
    <rect x="180" y="650" width="15" height="20" />
    <rect x="120" y="700" width="15" height="20" />
    <rect x="150" y="700" width="15" height="20" />
    <rect x="180" y="700" width="15" height="20" />
    <rect x="120" y="750" width="15" height="20" />
    <rect x="150" y="750" width="15" height="20" />
    <rect x="180" y="750" width="15" height="20" />
    
    <!-- Windows for other buildings -->
    <rect x="270" y="750" width="15" height="20" />
    <rect x="300" y="750" width="15" height="20" />
    <rect x="270" y="800" width="15" height="20" />
    <rect x="300" y="800" width="15" height="20" />
    
    <rect x="380" y="700" width="15" height="20" />
    <rect x="410" y="700" width="15" height="20" />
    <rect x="440" y="700" width="15" height="20" />
    <rect x="380" y="750" width="15" height="20" />
    <rect x="410" y="750" width="15" height="20" />
    <rect x="440" y="750" width="15" height="20" />
    
    <!-- More windows scattered throughout -->
    <rect x="610" y="650" width="15" height="20" />
    <rect x="640" y="650" width="15" height="20" />
    <rect x="670" y="650" width="15" height="20" />
    <rect x="700" y="650" width="15" height="20" />
    
    <rect x="1050" y="750" width="15" height="20" />
    <rect x="1080" y="750" width="15" height="20" />
    <rect x="1050" y="800" width="15" height="20" />
    <rect x="1080" y="800" width="15" height="20" />
    
    <rect x="1170" y="650" width="15" height="20" />
    <rect x="1200" y="650" width="15" height="20" />
    <rect x="1240" y="650" width="15" height="20" />
    <rect x="1170" y="700" width="15" height="20" />
    <rect x="1200" y="700" width="15" height="20" />
    <rect x="1240" y="700" width="15" height="20" />
    
    <rect x="1340" y="600" width="15" height="20" />
    <rect x="1370" y="600" width="15" height="20" />
    <rect x="1400" y="600" width="15" height="20" />
    <rect x="1430" y="600" width="15" height="20" />
    <rect x="1340" y="650" width="15" height="20" />
    <rect x="1370" y="650" width="15" height="20" />
    <rect x="1400" y="650" width="15" height="20" />
    <rect x="1430" y="650" width="15" height="20" />
    
    <rect x="1540" y="700" width="15" height="20" />
    <rect x="1570" y="700" width="15" height="20" />
    <rect x="1540" y="750" width="15" height="20" />
    <rect x="1570" y="750" width="15" height="20" />
    
    <rect x="1670" y="750" width="15" height="20" />
    <rect x="1700" y="750" width="15" height="20" />
    <rect x="1670" y="800" width="15" height="20" />
    <rect x="1700" y="800" width="15" height="20" />
    
    <rect x="1770" y="650" width="15" height="20" />
    <rect x="1800" y="650" width="15" height="20" />
    <rect x="1830" y="650" width="15" height="20" />
    <rect x="1860" y="650" width="15" height="20" />
    <rect x="1770" y="700" width="15" height="20" />
    <rect x="1800" y="700" width="15" height="20" />
    <rect x="1830" y="700" width="15" height="20" />
    <rect x="1860" y="700" width="15" height="20" />
  </g>
  
  <!-- Reflections in water -->
  <rect x="0" y="1080" width="1920" height="300" fill="url(#skyGradient)" opacity="0.3" />
  
  <!-- Text overlay -->
  <rect x="560" y="400" width="800" height="200" rx="20" ry="20" fill="rgba(0,0,0,0.5)" />
  <text x="960" y="500" font-family="Arial, sans-serif" font-size="48" text-anchor="middle" fill="#FFFFFF">Osaka Skyline Placeholder</text>
  <text x="960" y="560" font-family="Arial, sans-serif" font-size="32" text-anchor="middle" fill="#FFFFFF">Replace with actual high-quality image</text>
</svg> 